<svg xmlns="http://www.w3.org/2000/svg" width="24" height="24" viewBox="0 0 24 24"><defs><style>.a,.b{fill:#8a8fa1;}.a{opacity:0;}</style></defs><g transform="translate(-70 -188)"><rect class="a" width="24" height="24" transform="translate(70 188)"/><path class="b" d="M19.539,9.529A9.81,9.81,0,0,0,0,10.807a9.71,9.71,0,0,0,3.073,7.122,3.957,3.957,0,0,0,2.742,1.053H13.8a4.083,4.083,0,0,0,2.869-1.168,9.764,9.764,0,0,0,2.87-8.285Zm-4.013,7.112a2.453,2.453,0,0,1-1.726.706H5.815A2.34,2.34,0,0,1,4.2,16.741a8.093,8.093,0,0,1-2.56-5.934,8.187,8.187,0,0,1,2.729-6.1A8.078,8.078,0,0,1,9.8,2.632a8.627,8.627,0,0,1,.96.054,8.17,8.17,0,0,1,4.767,13.96ZM6.382,14.31a.818.818,0,1,1-1.145,1.169A6.541,6.541,0,0,1,10.745,4.333a.818.818,0,0,1,.692.926.809.809,0,0,1-.926.693A4.905,4.905,0,0,0,6.382,14.31Zm9.9-4.437a6.6,6.6,0,0,1,.066.934,6.484,6.484,0,0,1-1.969,4.673.819.819,0,1,1-1.145-1.171,4.889,4.889,0,0,0,1.426-4.2.818.818,0,0,1,1.619-.234Zm-4.9.516a1.662,1.662,0,1,1-1.156-1.156L13.32,6.141A.817.817,0,1,1,14.476,7.3Z" transform="translate(72 190.018)"/></g></svg>