<svg xmlns="http://www.w3.org/2000/svg" width="15" height="18" viewBox="0 0 15 18"><defs><style>.a{fill:#fff;}</style></defs><g transform="translate(-2)"><path class="a" d="M16.25,3H13.925A3.757,3.757,0,0,0,10.25,0H8.75A3.757,3.757,0,0,0,5.075,3H2.75a.75.75,0,0,0,0,1.5H3.5v9.75A3.755,3.755,0,0,0,7.25,18h4.5a3.755,3.755,0,0,0,3.75-3.75V4.5h.75a.75.75,0,0,0,0-1.5ZM8.75,1.5h1.5A2.254,2.254,0,0,1,12.372,3H6.628A2.254,2.254,0,0,1,8.75,1.5ZM14,14.25a2.25,2.25,0,0,1-2.25,2.25H7.25A2.25,2.25,0,0,1,5,14.25V4.5h9Z"/><path class="a" d="M9.75,16a.75.75,0,0,0,.75-.75v-4.5a.75.75,0,0,0-1.5,0v4.5A.75.75,0,0,0,9.75,16Z" transform="translate(-1.75 -2.5)"/><path class="a" d="M13.75,16a.75.75,0,0,0,.75-.75v-4.5a.75.75,0,0,0-1.5,0v4.5A.75.75,0,0,0,13.75,16Z" transform="translate(-2.75 -2.5)"/></g></svg>