<svg xmlns="http://www.w3.org/2000/svg" width="18" height="18" viewBox="0 0 18 18"><defs><style>.a{fill:#fff;}</style></defs><path class="a" d="M17.2.886a2.729,2.729,0,0,0-3.857,0L1.1,13.129A3.74,3.74,0,0,0,0,15.79v1.545a.753.753,0,0,0,.753.753H2.3a3.738,3.738,0,0,0,2.661-1.1L17.2,4.742a2.73,2.73,0,0,0,0-3.856ZM3.895,15.921a2.275,2.275,0,0,1-1.6.661H1.506V15.79a2.243,2.243,0,0,1,.662-1.6L11.458,4.9,13.19,6.633ZM16.138,3.678,14.251,5.565,12.52,3.837,14.407,1.95a1.223,1.223,0,0,1,1.728,1.731Z" transform="translate(0 -0.088)"/></svg>