<svg xmlns="http://www.w3.org/2000/svg" width="24" height="24" viewBox="0 0 24 24"><defs><style>.a{fill:rgba(255,255,255,0);}.b{fill:#6f8ae8;}</style></defs><g transform="translate(-70 -188)"><rect class="a" width="24" height="24" transform="translate(70 188)"/><path class="b" d="M13.7,20.024H8.3V16.48a2.7,2.7,0,1,1,5.4,0Zm6.3-.9a.9.9,0,0,1-.9.9H15.5V16.48a4.5,4.5,0,1,0-9,0v3.544H2.9a.9.9,0,0,1-.9-.9V10.28a.908.908,0,0,1,.264-.637L9.09,2.813a2.706,2.706,0,0,1,3.82,0l6.827,6.833A.908.908,0,0,1,20,10.28Z" transform="translate(71 188.976)"/></g></svg>