<svg xmlns="http://www.w3.org/2000/svg" width="17.996" height="18" viewBox="0 0 17.996 18"><defs><style>.a{fill:#6f8ae8;}</style></defs><g transform="translate(-0.001 0)"><path class="a" d="M10.383,15.061,7.936,17.508A3.77,3.77,0,1,1,2.6,12.176L5.05,9.728a.75.75,0,1,0-1.061-1.06L1.543,11.116A5.271,5.271,0,0,0,9,18.568l2.446-2.446a.75.75,0,1,0-1.06-1.06Z" transform="translate(0 -2.113)"/><path class="a" d="M18.569,1.546A5.234,5.234,0,0,0,14.842,0h0a5.237,5.237,0,0,0-3.726,1.543L8.667,3.99a.75.75,0,0,0,1.06,1.061L12.176,2.6a3.744,3.744,0,0,1,2.665-1.1h0a3.771,3.771,0,0,1,2.665,6.436L15.06,10.383a.75.75,0,0,0,1.061,1.061L18.567,9a5.277,5.277,0,0,0,0-7.453Z" transform="translate(-2.112 0)"/><path class="a" d="M12.719,8.22l-4.5,4.5a.75.75,0,1,0,1.06,1.06l4.5-4.5a.75.75,0,1,0-1.06-1.06Z" transform="translate(-2.001 -2.001)"/></g></svg>