<svg xmlns="http://www.w3.org/2000/svg" width="24" height="24" viewBox="0 0 24 24"><defs><style>.a,.b{fill:#8a8fa1;}.a{opacity:0;}</style></defs><g transform="translate(-70 -188)"><rect class="a" width="24" height="24" transform="translate(70 188)"/><g transform="translate(72.797 191)"><path class="b" d="M11.036,8a3.036,3.036,0,1,0,3.036,3.036A3.036,3.036,0,0,0,11.036,8Zm0,4.554a1.518,1.518,0,1,1,1.518-1.518A1.518,1.518,0,0,1,11.036,12.554Z" transform="translate(-1.638 -1.927)"/><path class="b" d="M16.453,10.551l-.337-.194a6.907,6.907,0,0,0,0-2.5l.337-.194a2.278,2.278,0,1,0-2.277-3.947l-.338.2a6.814,6.814,0,0,0-2.163-1.246V2.277a2.277,2.277,0,1,0-4.554,0v.389A6.814,6.814,0,0,0,4.96,3.916l-.339-.2A2.278,2.278,0,1,0,2.343,7.667l.337.194a6.907,6.907,0,0,0,0,2.5l-.337.194A2.278,2.278,0,0,0,4.62,14.5l.338-.2a6.814,6.814,0,0,0,2.163,1.246v.389a2.277,2.277,0,1,0,4.554,0v-.389A6.814,6.814,0,0,0,13.838,14.3l.339.2a2.278,2.278,0,1,0,2.277-3.947ZM14.519,7.685a5.35,5.35,0,0,1,0,2.846.759.759,0,0,0,.352.86l.823.475a.759.759,0,1,1-.759,1.315l-.824-.477a.759.759,0,0,0-.922.125,5.3,5.3,0,0,1-2.462,1.423.759.759,0,0,0-.57.736v.951a.759.759,0,1,1-1.518,0v-.95a.759.759,0,0,0-.57-.736,5.3,5.3,0,0,1-2.461-1.426.759.759,0,0,0-.922-.125l-.823.476A.759.759,0,1,1,3.1,11.864l.823-.475a.759.759,0,0,0,.352-.86,5.35,5.35,0,0,1,0-2.846.759.759,0,0,0-.353-.857L3.1,6.35a.759.759,0,0,1,.759-1.315l.824.477a.759.759,0,0,0,.922-.122A5.3,5.3,0,0,1,8.069,3.966a.759.759,0,0,0,.57-.739v-.95a.759.759,0,1,1,1.518,0v.95a.759.759,0,0,0,.57.736,5.3,5.3,0,0,1,2.462,1.426.759.759,0,0,0,.922.125l.823-.476a.759.759,0,1,1,.759,1.315l-.823.475a.759.759,0,0,0-.351.857Z" transform="translate(0 0)"/></g></g></svg>