<svg xmlns="http://www.w3.org/2000/svg" width="24" height="24" viewBox="0 0 24 24"><defs><style>.a{fill:#8a8fa1;opacity:0;}.b{fill:#6f8ae8;}.c{fill:#f5f6fa;}</style></defs><g transform="translate(-70 -188)"><rect class="a" width="24" height="24" transform="translate(70 188)"/><g transform="translate(72.797 191)"><path class="b" d="M16.453,10.551l-.337-.194a6.907,6.907,0,0,0,0-2.5l.337-.194a2.278,2.278,0,1,0-2.277-3.947l-.338.2a6.814,6.814,0,0,0-2.163-1.246V2.277a2.277,2.277,0,1,0-4.554,0v.389A6.814,6.814,0,0,0,4.96,3.916l-.339-.2A2.278,2.278,0,1,0,2.343,7.667l.337.194a6.907,6.907,0,0,0,0,2.5l-.337.194A2.278,2.278,0,0,0,4.62,14.5l.338-.2a6.814,6.814,0,0,0,2.163,1.246v.389a2.277,2.277,0,1,0,4.554,0v-.389A6.814,6.814,0,0,0,13.838,14.3l.339.2a2.278,2.278,0,1,0,2.277-3.947Z" transform="translate(0 0)"/><path class="c" d="M11.036,8a3.036,3.036,0,1,0,3.036,3.036A3.036,3.036,0,0,0,11.036,8Z" transform="translate(-1.638 -1.927)"/></g></g></svg>