<svg xmlns="http://www.w3.org/2000/svg" width="5.964" height="8.58" viewBox="0 0 5.964 8.58"><defs><style>.a{fill:#171c21;}</style></defs><path class="a" d="M.444-1.332q4.068-2.82,4.068-4.68a1.345,1.345,0,0,0-.27-.888A1.04,1.04,0,0,0,3.4-7.224q-1.188,0-1.26,1.62H.492A3.158,3.158,0,0,1,1.4-7.878a3.013,3.013,0,0,1,2.124-.774,2.778,2.778,0,0,1,2.01.678,2.4,2.4,0,0,1,.7,1.806,3.51,3.51,0,0,1-.522,1.782A7.234,7.234,0,0,1,4.392-2.742,10.411,10.411,0,0,1,2.7-1.452H6.408v1.38H.444Z" transform="translate(-0.444 8.652)"/></svg>