<svg xmlns="http://www.w3.org/2000/svg" width="19.967" height="20" viewBox="0 0 19.967 20"><defs><style>.a{fill:#fff;}</style></defs><path class="a" d="M17.383,12.776,14.24,17.9a4.362,4.362,0,0,1-3.225,2.064,4.429,4.429,0,0,1-.523.031,4.343,4.343,0,0,1-2.5-.8,3.951,3.951,0,0,1-5.574-5.472l-1.1-1.094a4.387,4.387,0,0,1,.8-6.833L6.923,2.833a7.382,7.382,0,0,1,8.606.459L16.911,1.91A.833.833,0,1,1,18.09,3.088L16.709,4.47a7.459,7.459,0,0,1,.674,8.306ZM6.721,18.039l-3.1-3.1a2.267,2.267,0,0,0,.386,2.72A2.356,2.356,0,0,0,6.721,18.039Zm8.267-13A5.739,5.739,0,0,0,7.808,4.25L2.994,7.221A2.721,2.721,0,0,0,2.5,11.46l6.075,6.076a2.721,2.721,0,0,0,4.244-.5l3.129-5.1a5.781,5.781,0,0,0-.96-6.9ZM16.055,20a.833.833,0,0,1-.492-1.507,7.194,7.194,0,0,0,2.762-4.506.833.833,0,1,1,1.628.358,8.917,8.917,0,0,1-3.407,5.494A.833.833,0,0,1,16.055,20ZM.834,4.782A.833.833,0,0,1,.167,3.454,8.91,8.91,0,0,1,5.761.017.833.833,0,0,1,6.095,1.65,7.2,7.2,0,0,0,1.5,4.445.833.833,0,0,1,.834,4.782Z" transform="translate(-0.004 0)"/></svg>