<svg xmlns="http://www.w3.org/2000/svg" width="224" height="201" viewBox="0 0 224 201"><defs><style>.a,.f{fill:none;}.a{stroke:#6f8ae8;}.b{font-size:24px;}.b,.d{font-family:Poppins-Medium, Poppins;font-weight:500;}.c{fill:#6f8ae8;}.d{fill:#fff;font-size:16px;}.e{stroke:none;}</style></defs><g transform="translate(-56 -487)"><g class="a" transform="translate(56 487)"><rect class="e" width="224" height="201" rx="10"/><rect class="f" x="0.5" y="0.5" width="223" height="200" rx="9.5"/></g><g transform="translate(0 -41)"><text class="b" transform="translate(80 577)"><tspan x="0" y="0">Boost Your</tspan><tspan x="0" y="32">Sales Fast!</tspan></text><path class="c" d="M11,0l2.53,8.47L22,11l-8.47,2.53L11,22,8.47,13.53,0,11,8.47,8.47Z" transform="translate(223 552)"/><path class="c" d="M8.5,0l1.955,6.545L17,8.5l-6.545,1.955L8.5,17,6.545,10.455,0,8.5,6.545,6.545Z" transform="translate(80 624)"/></g><rect class="c" width="176" height="40" rx="5" transform="translate(80 624)"/><text class="d" transform="translate(124 650)"><tspan x="0" y="0">Explore Pro</tspan></text></g></svg>