<svg xmlns="http://www.w3.org/2000/svg" width="40" height="40" viewBox="0 0 40 40"><defs><style>.a{fill:#6f8ae8;}</style></defs><path class="a" d="M-1606.142-1366.955a20,20,0,0,0-20,20,20,20,0,0,0,20,20,20,20,0,0,0,20-20A20,20,0,0,0-1606.142-1366.955Zm-7.973,8.608a.6.6,0,0,1,.618,0c.692.418,1.331.89,1.97,1.36l.935.73.455.36.395.283a6.473,6.473,0,0,0,3.534,1.075,6.632,6.632,0,0,0,3.533-1.076c.128-.1.259-.19.4-.282s.3-.245.456-.36l.942-.723c.648-.462,1.289-.932,1.993-1.338a.558.558,0,0,1,.763.2.559.559,0,0,1,0,.557c-.406.7-.875,1.345-1.338,1.993l-.723.942c-.125.16-.237.3-.381.468s-.315.34-.479.507a7.513,7.513,0,0,1-5.16,2.047,7.6,7.6,0,0,1-5.159-2.048l-.479-.506c-.149-.163-.256-.309-.382-.468l-.73-.935c-.47-.64-.942-1.279-1.36-1.97A.6.6,0,0,1-1614.115-1358.347Zm-2.628,19.408a.558.558,0,0,1-.762-.205.558.558,0,0,1,0-.557c.406-.7.875-1.345,1.338-1.993l.723-.942c.115-.155.259-.314.36-.456s.186-.267.282-.4a6.63,6.63,0,0,0,1.076-3.533,6.473,6.473,0,0,0-1.075-3.534l-.283-.395-.36-.455-.73-.935c-.471-.64-.942-1.278-1.36-1.97a.6.6,0,0,1,.2-.821.6.6,0,0,1,.619,0c.692.418,1.331.89,1.97,1.36l.935.73c.159.126.3.233.468.382l.507.479a7.6,7.6,0,0,1,2.048,5.159,7.513,7.513,0,0,1-2.047,5.16q-.251.245-.507.479c-.167.145-.308.257-.468.381l-.942.723C-1615.4-1339.814-1616.038-1339.345-1616.743-1338.939Zm18.574,3.376a.6.6,0,0,1-.619,0c-.692-.418-1.331-.89-1.97-1.36l-.935-.73-.455-.36-.395-.283a6.473,6.473,0,0,0-3.534-1.075,6.635,6.635,0,0,0-3.533,1.076c-.128.1-.259.191-.4.282s-.3.245-.456.36l-.942.723c-.647.463-1.288.932-1.992,1.339a.559.559,0,0,1-.763-.2.559.559,0,0,1,0-.558c.406-.7.875-1.345,1.338-1.993l.723-.942c.125-.16.236-.3.382-.468s.315-.34.479-.507a7.514,7.514,0,0,1,5.16-2.047,7.6,7.6,0,0,1,5.158,2.048l.48.507c.149.162.256.309.382.468l.73.935c.471.64.943,1.278,1.361,1.97A.6.6,0,0,1-1598.169-1335.563Zm3.216-3.216a.6.6,0,0,1-.618,0c-.692-.418-1.331-.89-1.97-1.361l-.935-.729c-.159-.126-.305-.234-.468-.382l-.507-.479a7.608,7.608,0,0,1-2.048-5.159,7.516,7.516,0,0,1,2.047-5.16q.251-.245.507-.479c.166-.145.308-.257.468-.382l.942-.723c.647-.463,1.289-.932,1.993-1.338a.558.558,0,0,1,.762.205.56.56,0,0,1,0,.557c-.406.7-.876,1.345-1.338,1.993l-.723.942c-.115.155-.258.314-.36.456s-.186.267-.282.4a6.641,6.641,0,0,0-1.076,3.533,6.479,6.479,0,0,0,1.075,3.534l.283.395.36.455.73.935c.471.64.943,1.278,1.36,1.97A.6.6,0,0,1-1594.952-1338.779Z" transform="translate(1626.142 1366.955)"/></svg>