<svg xmlns="http://www.w3.org/2000/svg" width="24" height="24" viewBox="0 0 24 24"><defs><style>.a,.b{fill:#8a8fa1;}.a{opacity:0;}</style></defs><g transform="translate(-70 -188)"><rect class="a" width="24" height="24" transform="translate(70 188)"/><path class="b" d="M17.341,6.811,11.652,1.118a3.754,3.754,0,0,0-5.3,0L.659,6.811A2.236,2.236,0,0,0,0,8.4V15.77a2.251,2.251,0,0,0,2.25,2.251h13.5A2.251,2.251,0,0,0,18,15.77V8.4A2.236,2.236,0,0,0,17.341,6.811ZM11.25,16.52H6.75V13.568a2.25,2.25,0,1,1,4.5,0Zm5.25-.75a.75.75,0,0,1-.75.75h-3V13.568a3.75,3.75,0,1,0-7.5,0V16.52h-3a.75.75,0,0,1-.75-.75V8.4a.757.757,0,0,1,.22-.531L7.408,2.182a2.255,2.255,0,0,1,3.183,0L16.28,7.875a.757.757,0,0,1,.22.528Z" transform="translate(73 190.979)"/></g></svg>