<svg xmlns="http://www.w3.org/2000/svg" width="54" height="54" viewBox="0 0 54 54"><defs><style>.a{fill:#6f8ae8;}.b{fill:#fff;}.c{fill:#affc86;}.d{fill:#171c21;}</style></defs><g transform="translate(-1238 -66)"><rect class="a" width="48" height="48" rx="10" transform="translate(1238 72)"/><path class="b" d="M17.383,12.776,14.24,17.9a4.362,4.362,0,0,1-3.225,2.064,4.429,4.429,0,0,1-.523.031,4.343,4.343,0,0,1-2.5-.8,3.951,3.951,0,0,1-5.574-5.472l-1.1-1.094a4.387,4.387,0,0,1,.8-6.833L6.923,2.833a7.382,7.382,0,0,1,8.606.459L16.911,1.91A.833.833,0,1,1,18.09,3.088L16.709,4.47a7.459,7.459,0,0,1,.674,8.306ZM6.721,18.039l-3.1-3.1a2.267,2.267,0,0,0,.386,2.72A2.356,2.356,0,0,0,6.721,18.039Zm8.267-13A5.739,5.739,0,0,0,7.808,4.25L2.994,7.221A2.721,2.721,0,0,0,2.5,11.46l6.075,6.076a2.721,2.721,0,0,0,4.244-.5l3.129-5.1a5.781,5.781,0,0,0-.96-6.9ZM16.055,20a.833.833,0,0,1-.492-1.507,7.194,7.194,0,0,0,2.762-4.506.833.833,0,1,1,1.628.358,8.917,8.917,0,0,1-3.407,5.494A.833.833,0,0,1,16.055,20ZM.834,4.782A.833.833,0,0,1,.167,3.454,8.91,8.91,0,0,1,5.761.017.833.833,0,0,1,6.095,1.65,7.2,7.2,0,0,0,1.5,4.445.833.833,0,0,1,.834,4.782Z" transform="translate(1251.996 86)"/><circle class="c" cx="9" cy="9" r="9" transform="translate(1274 66)"/><path class="d" d="M.444-1.332q4.068-2.82,4.068-4.68a1.345,1.345,0,0,0-.27-.888A1.04,1.04,0,0,0,3.4-7.224q-1.188,0-1.26,1.62H.492A3.158,3.158,0,0,1,1.4-7.878a3.013,3.013,0,0,1,2.124-.774,2.778,2.778,0,0,1,2.01.678,2.4,2.4,0,0,1,.7,1.806,3.51,3.51,0,0,1-.522,1.782A7.234,7.234,0,0,1,4.392-2.742,10.411,10.411,0,0,1,2.7-1.452H6.408v1.38H.444Z" transform="translate(1279.556 79.652)"/></g></svg>