<svg xmlns="http://www.w3.org/2000/svg" width="24" height="24" viewBox="0 0 24 24"><defs><style>.a,.b{fill:#8a8fa1;}.a{opacity:0;}</style></defs><g transform="translate(-70 -188)"><rect class="a" width="24" height="24" transform="translate(70 188)"/><g transform="translate(73 191)"><path class="b" d="M9,14h6a1,1,0,0,0,0-2H9a1,1,0,0,0,0,2Z" transform="translate(-3 -3.273)"/><path class="b" d="M14.25,0H3.75A3.754,3.754,0,0,0,0,3.75V4.5A2.25,2.25,0,0,0,.75,6.176V14.25A3.755,3.755,0,0,0,4.5,18h9a3.755,3.755,0,0,0,3.75-3.75V6.175A2.25,2.25,0,0,0,18,4.5V3.75A3.755,3.755,0,0,0,14.25,0ZM1.5,3.75A2.25,2.25,0,0,1,3.75,1.5h10.5A2.25,2.25,0,0,1,16.5,3.75V4.5a.75.75,0,0,1-.75.75H2.25A.75.75,0,0,1,1.5,4.5Zm14.25,10.5A2.25,2.25,0,0,1,13.5,16.5h-9a2.25,2.25,0,0,1-2.25-2.25V6.75h13.5Z"/></g></g></svg>